filtEMG_segment_24.mot
version=1
nRows=84
nColumns=5
inDegrees=no
endheader
                Time	                RGAS	             RLATGAS	                RSOL	                RTIA	
          5.04000000	          0.00242371	          0.01196160	          0.00645543	          0.00711131	
          5.04500000	          0.00259032	          0.01250535	          0.00601250	          0.00705101	
          5.05000000	          0.00275898	          0.01304436	          0.00552906	          0.00698679	
          5.05500000	          0.00291932	          0.01353685	          0.00502122	          0.00692258	
          5.06000000	          0.00306130	          0.01394476	          0.00450679	          0.00686093	
          5.06500000	          0.00317587	          0.01423694	          0.00400458	          0.00680253	
          5.07000000	          0.00325567	          0.01439168	          0.00353354	          0.00674614	
          5.07500000	          0.00329552	          0.01439853	          0.00311189	          0.00668880	
          5.08000000	          0.00329295	          0.01425921	          0.00275620	          0.00662654	
          5.08500000	          0.00324844	          0.01398757	          0.00248049	          0.00655536	
          5.09000000	          0.00316555	          0.01360856	          0.00229550	          0.00647247	
          5.09500000	          0.00305076	          0.01315631	          0.00220815	          0.00637763	
          5.10000000	          0.00291320	          0.01267131	          0.00222110	          0.00627433	
          5.10500000	          0.00276401	          0.01219710	          0.00233270	          0.00617065	
          5.11000000	          0.00261573	          0.01177652	          0.00253704	          0.00607956	
          5.11500000	          0.00248141	          0.01144795	          0.00282433	          0.00601853	
          5.12000000	          0.00237373	          0.01124193	          0.00318142	          0.00600843	
          5.12500000	          0.00230409	          0.01117836	          0.00359246	          0.00607161	
          5.13000000	          0.00228178	          0.01126468	          0.00403969	          0.00622942	
          5.13500000	          0.00231321	          0.01149515	          0.00450433	          0.00649942	
          5.14000000	          0.00240136	          0.01185148	          0.00496738	          0.00689238	
          5.14500000	          0.00254544	          0.01230458	          0.00541050	          0.00740987	
          5.15000000	          0.00274077	          0.01281735	          0.00581672	          0.00804231	
          5.15500000	          0.00297894	          0.01334830	          0.00617118	          0.00876834	
          5.16000000	          0.00324825	          0.01385550	          0.00646158	          0.00955538	
          5.16500000	          0.00353440	          0.01430057	          0.00667863	          0.01036174	
          5.17000000	          0.00382135	          0.01465227	          0.00681625	          0.01114007	
          5.17500000	          0.00409244	          0.01488928	          0.00687164	          0.01184201	
          5.18000000	          0.00433155	          0.01500203	          0.00684526	          0.01242352	
          5.18500000	          0.00452424	          0.01499318	          0.00674064	          0.01285027	
          5.19000000	          0.00465887	          0.01487704	          0.00656420	          0.01310257	
          5.19500000	          0.00472749	          0.01467772	          0.00632495	          0.01317895	
          5.20000000	          0.00472645	          0.01442635	          0.00603425	          0.01309788	
          5.20500000	          0.00465668	          0.01415780	          0.00570547	          0.01289723	
          5.21000000	          0.00452356	          0.01390696	          0.00535364	          0.01263128	
          5.21500000	          0.00433646	          0.01370522	          0.00499517	          0.01236547	
          5.22000000	          0.00410789	          0.01357740	          0.00464730	          0.01216939	
          5.22500000	          0.00385253	          0.01353940	          0.00432765	          0.01210873	
          5.23000000	          0.00358601	          0.01359677	          0.00405358	          0.01223729	
          5.23500000	          0.00332381	          0.01374444	          0.00384142	          0.01258998	
          5.24000000	          0.00308019	          0.01396741	          0.00370564	          0.01317772	
          5.24500000	          0.00286734	          0.01424249	          0.00365798	          0.01398511	
          5.25000000	          0.00269482	          0.01454078	          0.00370649	          0.01497111	
          5.25500000	          0.00256917	          0.01483067	          0.00385473	          0.01607286	
          5.26000000	          0.00249387	          0.01508111	          0.00410112	          0.01721214	
          5.26500000	          0.00246945	          0.01526474	          0.00443859	          0.01830382	
          5.27000000	          0.00249381	          0.01536070	          0.00485457	          0.01926510	
          5.27500000	          0.00256267	          0.01535675	          0.00533152	          0.02002451	
          5.28000000	          0.00267003	          0.01525058	          0.00584784	          0.02052945	
          5.28500000	          0.00280875	          0.01505007	          0.00637925	          0.02075129	
          5.29000000	          0.00297107	          0.01477261	          0.00690045	          0.02068755	
          5.29500000	          0.00314917	          0.01444342	          0.00738703	          0.02036091	
          5.30000000	          0.00333560	          0.01409311	          0.00781725	          0.01981529	
          5.30500000	          0.00352371	          0.01375466	          0.00817356	          0.01910981	
          5.31000000	          0.00370798	          0.01346019	          0.00844376	          0.01831149	
          5.31500000	          0.00388418	          0.01323780	          0.00862145	          0.01748754	
          5.32000000	          0.00404952	          0.01310888	          0.00870597	          0.01669853	
          5.32500000	          0.00420257	          0.01308609	          0.00870162	          0.01599294	
          5.33000000	          0.00434314	          0.01317238	          0.00861655	          0.01540370	
          5.33500000	          0.00447198	          0.01336101	          0.00846130	          0.01494696	
          5.34000000	          0.00459045	          0.01363654	          0.00824742	          0.01462291	
          5.34500000	          0.00470005	          0.01397683	          0.00798625	          0.01441846	
          5.35000000	          0.00480202	          0.01435560	          0.00768815	          0.01431104	
          5.35500000	          0.00489684	          0.01474526	          0.00736207	          0.01427311	
          5.36000000	          0.00498389	          0.01511990	          0.00701566	          0.01427678	
          5.36500000	          0.00506118	          0.01545778	          0.00665566	          0.01429778	
          5.37000000	          0.00512527	          0.01574336	          0.00628845	          0.01431860	
          5.37500000	          0.00517138	          0.01596852	          0.00592069	          0.01433039	
          5.38000000	          0.00519377	          0.01613298	          0.00555967	          0.01433343	
          5.38500000	          0.00518633	          0.01624380	          0.00521355	          0.01433632	
          5.39000000	          0.00514331	          0.01631421	          0.00489119	          0.01435403	
          5.39500000	          0.00506021	          0.01636175	          0.00460172	          0.01440494	
          5.40000000	          0.00493464	          0.01640602	          0.00435388	          0.01450756	
          5.40500000	          0.00476704	          0.01646623	          0.00415521	          0.01467700	
          5.41000000	          0.00456119	          0.01655874	          0.00401133	          0.01492192	
          5.41500000	          0.00432442	          0.01669489	          0.00392514	          0.01524215	
          5.42000000	          0.00406741	          0.01687928	          0.00389644	          0.01562736	
          5.42500000	          0.00380364	          0.01710868	          0.00392161	          0.01605697	
          5.43000000	          0.00354841	          0.01737182	          0.00399376	          0.01650136	
          5.43500000	          0.00331765	          0.01764996	          0.00410305	          0.01692437	
          5.44000000	          0.00312653	          0.01791845	          0.00423739	          0.01728673	
          5.44500000	          0.00298808	          0.01814901	          0.00438323	          0.01755029	
          5.45000000	          0.00291182	          0.01831266	          0.00452667	          0.01768250	
          5.45500000	          0.00290280	          0.01838301	          0.00465446	          0.01766058	
